<svg width="43" height="25" viewBox="0 0 43 25" fill="none" xmlns="http://www.w3.org/2000/svg">
<rect y="0.5" width="43" height="24" rx="4" fill="#063A88"/>
<path d="M11.5245 4.96353C11.6741 4.50287 12.3259 4.50287 12.4755 4.96353L13.9084 9.37336C13.9753 9.57937 14.1673 9.71885 14.3839 9.71885H19.0207C19.505 9.71885 19.7064 10.3387 19.3146 10.6234L15.5633 13.3488C15.3881 13.4761 15.3148 13.7018 15.3817 13.9078L16.8145 18.3176C16.9642 18.7783 16.437 19.1613 16.0451 18.8766L12.2939 16.1512C12.1186 16.0239 11.8814 16.0239 11.7061 16.1512L7.95488 18.8766C7.56303 19.1613 7.03578 18.7783 7.18546 18.3176L8.6183 13.9078C8.68524 13.7018 8.61191 13.4761 8.43667 13.3488L4.68544 10.6234C4.29358 10.3387 4.49497 9.71885 4.97933 9.71885H9.6161C9.83272 9.71885 10.0247 9.57937 10.0916 9.37336L11.5245 4.96353Z" fill="white"/>
<path d="M21.6562 15.2955V14.2301L25.4276 8.27273H26.267V9.84091H25.7344L23.0369 14.1108V14.179H28.206V15.2955H21.6562ZM25.794 17V14.9716L25.8026 14.4858V8.27273H27.0511V17H25.794ZM30.2195 17.081C29.9865 17.081 29.7862 16.9986 29.6186 16.8338C29.451 16.6662 29.3672 16.4645 29.3672 16.2287C29.3672 15.9957 29.451 15.7969 29.6186 15.6321C29.7862 15.4645 29.9865 15.3807 30.2195 15.3807C30.4524 15.3807 30.6527 15.4645 30.8203 15.6321C30.9879 15.7969 31.0717 15.9957 31.0717 16.2287C31.0717 16.3849 31.032 16.5284 30.9524 16.6591C30.8757 16.7869 30.7734 16.8892 30.6456 16.9659C30.5178 17.0426 30.3757 17.081 30.2195 17.081ZM35.5579 8.15341C35.9471 8.15625 36.3306 8.22727 36.7085 8.36648C37.0863 8.50568 37.4272 8.73295 37.7312 9.0483C38.038 9.36364 38.2823 9.78977 38.4641 10.3267C38.6488 10.8608 38.7425 11.5256 38.7454 12.321C38.7454 13.0852 38.6687 13.7656 38.5153 14.3622C38.3619 14.956 38.1417 15.4574 37.8548 15.8665C37.5707 16.2756 37.2255 16.5866 36.8192 16.7997C36.413 17.0128 35.9556 17.1193 35.4471 17.1193C34.9272 17.1193 34.4656 17.017 34.0621 16.8125C33.6587 16.608 33.3306 16.3253 33.0778 15.9645C32.8249 15.6009 32.6673 15.1832 32.6048 14.7116H33.9045C33.9897 15.0866 34.163 15.3906 34.4244 15.6236C34.6886 15.8537 35.0295 15.9688 35.4471 15.9688C36.0863 15.9688 36.5849 15.6903 36.9428 15.1335C37.3008 14.5739 37.4812 13.7926 37.484 12.7898H37.4158C37.2681 13.0341 37.0835 13.2443 36.8619 13.4205C36.6431 13.5966 36.3974 13.733 36.1246 13.8295C35.8519 13.9261 35.5607 13.9744 35.2511 13.9744C34.7482 13.9744 34.2908 13.8509 33.8789 13.6037C33.467 13.3565 33.1388 13.017 32.8945 12.5852C32.6502 12.1534 32.5281 11.6605 32.5281 11.1065C32.5281 10.5554 32.6531 10.0554 32.9031 9.60653C33.1559 9.15767 33.5082 8.80256 33.9599 8.54119C34.4144 8.27699 34.9471 8.14773 35.5579 8.15341ZM35.5621 9.26136C35.2298 9.26136 34.93 9.34375 34.663 9.50852C34.3988 9.67045 34.19 9.89062 34.0366 10.169C33.8832 10.4446 33.8065 10.7514 33.8065 11.0895C33.8065 11.4276 33.8803 11.7344 34.0281 12.0099C34.1786 12.2827 34.3832 12.5 34.6417 12.6619C34.9031 12.821 35.2013 12.9006 35.5366 12.9006C35.7866 12.9006 36.0195 12.8523 36.2354 12.7557C36.4513 12.6591 36.6403 12.5256 36.8022 12.3551C36.9641 12.1818 37.0906 11.9858 37.1815 11.767C37.2724 11.5483 37.3178 11.3182 37.3178 11.0767C37.3178 10.7557 37.2411 10.4574 37.0877 10.1818C36.9371 9.90625 36.7298 9.68466 36.4656 9.51705C36.2013 9.34659 35.9002 9.26136 35.5621 9.26136Z" fill="white"/>
</svg>
